<svg xmlns="http://www.w3.org/2000/svg" viewBox="0 0 512.001 512.001" xmlns:v="https://vecta.io/nano"><path d="M197.852 345.632c-11.929-7.769-28.97-2.745-38.061 11.215l-63.172 97.022c-9.09 13.96-6.787 31.576 5.142 39.34 11.929 7.769 28.97 2.745 38.061-11.215l63.172-97.017c9.09-13.962 6.787-31.577-5.142-39.345zm116.294 0c11.929-7.769 28.966-2.745 38.061 11.215l63.172 97.022c9.09 13.96 6.787 31.576-5.142 39.34-11.929 7.769-28.97 2.745-38.061-11.215l-63.172-97.017c-9.09-13.962-6.787-31.577 5.142-39.345z" fill="#407190"/><path d="M292.795 49.633c0 7.395-5.992 13.387-13.387 13.387h-46.824c-7.395 0-13.387-5.992-13.387-13.387V28.525c0-7.395 5.992-13.387 13.387-13.387h46.828c7.395 0 13.387 5.992 13.387 13.387v21.108h-.004z" fill="#cd4e38"/><path d="M191.324 43.284h129.362v62.726H191.324zm-39.89 85.965l-37.682 37.682-79.235-79.235 37.682-37.682z" fill="#407190"/><path d="M157.892 37.955C123.061 8.882 74.036 8.245 38.784 34.78c-.212-.242-.416-.484-.646-.718-5.401-5.401-14.164-5.401-19.566 0a13.84 13.84 0 0 0 0 19.566c.229.229.472.438.714.646-26.531 35.252-25.894 84.272 3.179 119.107.654.786 1.606 1.258 2.626 1.3 1.02.051 2.01-.336 2.733-1.058l130.31-130.31a3.63 3.63 0 0 0 1.062-2.737c-.046-1.01-.522-1.967-1.304-2.621z" fill="#cd4e38"/><path d="M439.791 50l37.682 37.682-79.235 79.235-37.682-37.682z" fill="#407190"/><path d="M354.106 37.955c34.835-29.072 83.856-29.706 119.107-3.175.212-.242.421-.484.65-.718 5.401-5.401 14.164-5.401 19.566 0s5.401 14.164 0 19.566c-.229.229-.476.438-.714.646 26.527 35.252 25.894 84.272-3.179 119.107-.654.786-1.606 1.258-2.626 1.3-1.02.051-2.01-.336-2.733-1.058L353.864 43.314a3.63 3.63 0 0 1-1.062-2.737c.046-1.011.518-1.968 1.304-2.622z" fill="#cd4e38"/><circle cx="256.005" cy="271.984" r="212.742" fill="#589bc7"/><g opacity=".4"><circle cx="256.005" cy="271.984" r="182.951" fill="#fbf5e2"/></g><circle cx="256.005" cy="271.984" r="165.298" fill="#fbf5e2"/><path d="M328.825 332.385c5.478 5.788 5.533 14.628.128 19.749h0c-5.41 5.117-14.237 4.573-19.715-1.211l-53.296-56.925c-5.478-5.788-5.533-14.628-.127-19.749h0c5.41-5.117 14.237-4.573 19.715 1.211l53.295 56.925z" fill="#407190"/><g opacity=".4"><path d="M334.213 148.367a7.58 7.58 0 0 0-2.945-10.306h0c-3.659-2.036-8.274-.718-10.306 2.941l-67.698 121.53c-2.036 3.659-.714 8.274 2.945 10.31h0c3.659 2.036 8.274.718 10.306-2.941l67.698-121.534z" fill="#407190"/></g><path d="M116.036 215.386c-.909 2.184.123 4.692 2.303 5.593l133.374 55.519c2.18.909 4.687-.123 5.593-2.303h0c.905-2.184-.123-4.692-2.308-5.593l-133.365-55.519a4.28 4.28 0 0 0-5.597 2.303h0z" fill="#cd4e38"/><circle cx="256.005" cy="271.984" r="36.284" fill="#589bc7"/><g fill="#cd4e38"><circle cx="256.005" cy="131.598" r="9.456"/><circle cx="256.005" cy="412.353" r="9.456"/><circle cx="115.594" cy="271.984" r="9.456"/><circle cx="396.374" cy="271.984" r="9.456"/></g></svg>